<?xml version="1.0" encoding="UTF-8" standalone="no" ?>
<!DOCTYPE svg PUBLIC "-//W3C//DTD SVG 1.1//EN" "http://www.w3.org/Graphics/SVG/1.1/DTD/svg11.dtd">
<svg xmlns="http://www.w3.org/2000/svg" xmlns:xlink="http://www.w3.org/1999/xlink" version="1.1" width="1280" height="1024" viewBox="0 0 1280 1024" xml:space="preserve">
<desc>Created with Fabric.js 5.3.0</desc>
<defs>
</defs>
<g transform="matrix(1 0 0 1 640 512)" id="background-logo"  >
<rect style="stroke: none; stroke-width: 0; stroke-dasharray: none; stroke-linecap: butt; stroke-dashoffset: 0; stroke-linejoin: miter; stroke-miterlimit: 4; fill: rgb(255,255,255); fill-rule: nonzero; opacity: 1;"  paint-order="stroke"  x="-640" y="-512" rx="0" ry="0" width="1280" height="1024" />
</g>
<g transform="matrix(5.10151514368648 0 0 5.10151514368648 639.2841974986972 511.2191245440333)" id="logo-logo"  >
<g style=""  paint-order="stroke"   >
		<g transform="matrix(1.098881111864943 0 0 1.0988811118649429 77.34123239726586 2.57560106568107)"  >
<path style="stroke: none; stroke-width: 1; stroke-dasharray: none; stroke-linecap: butt; stroke-dashoffset: 0; stroke-linejoin: miter; stroke-miterlimit: 4; fill: rgb(0,118,192); fill-rule: nonzero; opacity: 1;"  paint-order="stroke"  transform=" translate(-232.88180540000002, -132.3438377)" d="M 232.8679199 118.8222122 C 225.4067535 118.8222122 219.3601837 124.868782 219.3601837 132.3575439 C 219.3601837 139.8187255 225.40675349999998 145.8654632 232.8679199 145.8654632 C 240.3568573 145.8654632 246.40342710000002 139.8187255 246.40342710000002 132.3575439 C 246.4034271 124.868782 240.3568573 118.8222122 232.8679199 118.8222122 z" stroke-linecap="round" />
</g>
		<g transform="matrix(1.098881111864943 0 0 1.0988811118649429 57.34890428540507 50.2064780455224)"  >
<path style="stroke: none; stroke-width: 1; stroke-dasharray: none; stroke-linecap: butt; stroke-dashoffset: 0; stroke-linejoin: miter; stroke-miterlimit: 4; fill: rgb(0,118,192); fill-rule: nonzero; opacity: 1;"  paint-order="stroke"  transform=" translate(-214.6884559138748, -175.68872411724453)" d="M 226.5440521 149.2214966 L 220.9134216 162.20224 L 214.2565612 162.75700379999998 L 214.0625457 157.01548769999997 L 223.60397329999998 147.91795349999995 C 221.55131519999998 145.97634889999995 218.00111379999998 144.72816469999995 213.89613329999997 144.47863769999995 C 205.88018789999998 144.00698849999995 195.83953849999997 147.39094539999996 191.17979419999998 157.26519779999995 C 191.17979419999998 157.26519779999995 198.25260909999997 148.94419869999996 207.54432669999997 149.13836669999995 C 207.54432669999997 149.13836669999995 198.80737299999998 153.02140809999995 195.86729419999998 162.03582759999995 C 195.86729419999998 162.03582759999995 221.523712 173.65750119999996 223.52067549999998 206.94149779999995 C 223.52067549999998 206.94149779999995 234.17163069999998 187.52583309999994 232.78480509999997 165.78038019999997 C 232.78480509999997 165.78038019999997 237.02842689999997 173.82391349999997 232.92344649999998 194.29357909999996 C 240.6063995 181.28508 241.0225067 159.7060394 226.5440521 149.2214966 z" stroke-linecap="round" />
</g>
		<g transform="matrix(1.098881111864943 0 0 1.0988811118649429 -0.002177460267432707 39.684020293770885)"  >
<path style="stroke: none; stroke-width: 1; stroke-dasharray: none; stroke-linecap: butt; stroke-dashoffset: 0; stroke-linejoin: miter; stroke-miterlimit: 4; fill: rgb(0,118,192); fill-rule: nonzero; opacity: 1;"  paint-order="stroke"  transform=" translate(-162.49802227511628, -166.11311339999997)" d="M 192.3446808 163.5059509 C 190.2366791 162.1191101 187.906723 160.81539909999998 185.3549957 159.5673828 C 187.2133026 156.1834259 188.4061279 152.3835144 188.73895259999998 148.27853389999999 C 188.82206719999996 147.50183099999998 188.84983819999997 146.66976929999998 188.84983819999997 145.8654632 C 188.84983819999997 130.69342039999998 177.06175229999997 118.37832639999999 162.49999989999998 118.37832639999999 C 147.9382475 118.37832639999999 136.1501616 130.69342039999998 136.1501616 145.8654632 C 136.1501616 146.6697692 136.1779326 147.50183099999998 136.26104719999998 148.27853389999999 C 136.48298629999996 151.21862789999997 137.17640669999997 153.9922943 138.20265179999998 156.57177729999998 C 138.64652999999998 157.5980224 139.11801129999998 158.59649649999997 139.6450041 159.5673828 C 122.448242 167.9715118 115.81913739999999 179.26036069999998 117.78849779999999 194.6264191 C 117.78849779999999 194.6264191 123.55777729999998 169.8298188 144.6930999 166.1409607 C 148.6871947 169.9408722 153.8184051 172.49259949999998 159.5043945 173.1860199 L 153.01409909999998 197.5387268 L 162.5 213.8479004 L 171.9859009 197.53872679999998 L 165.49560549999998 173.18601989999996 C 171.1815949 172.52037049999996 176.31280519999999 169.96864319999997 180.30690009999998 166.14096069999997 C 201.44223029999998 169.82981869999998 207.21150219999998 194.62641909999996 207.21150219999998 194.62641909999996 C 208.8756409 181.5625458 204.3269501 171.4385986 192.3446808 163.5059509 z M 162.5 162.7570038 C 152.5424652 162.7570038 144.4711609 154.6856995 144.4711609 144.7281647 C 144.4711609 134.7707978 152.5424652 126.69932560000001 162.5 126.69932560000001 C 172.4575348 126.69932560000001 180.5288391 134.7707978 180.5288391 144.7281647 C 180.5288391 154.6856995 172.4575348 162.7570038 162.5 162.7570038 z" stroke-linecap="round" />
</g>
		<g transform="matrix(1.098881111864943 0 0 1.0988811118649429 -77.34124080370634 2.57560106568107)"  >
<path style="stroke: none; stroke-width: 1; stroke-dasharray: none; stroke-linecap: butt; stroke-dashoffset: 0; stroke-linejoin: miter; stroke-miterlimit: 4; fill: rgb(0,118,192); fill-rule: nonzero; opacity: 1;"  paint-order="stroke"  transform=" translate(-92.11819455, -132.3438377)" d="M 105.6398239 132.3575439 C 105.6398239 124.868782 99.5932464 118.8222122 92.1043167 118.8222122 C 84.6431427 118.8222122 78.5965652 124.868782 78.5965652 132.3575439 C 78.5965652 139.8187255 84.6431427 145.8654632 92.1043167 145.8654632 C 99.5932465 145.8654633 105.6398239 139.8187256 105.6398239 132.3575439 z" stroke-linecap="round" />
</g>
		<g transform="matrix(1.098881111864943 0 0 1.0988811118649429 -57.45550396619018 50.20596048563107)"  >
<path style="stroke: none; stroke-width: 1; stroke-dasharray: none; stroke-linecap: butt; stroke-dashoffset: 0; stroke-linejoin: miter; stroke-miterlimit: 4; fill: rgb(0,118,192); fill-rule: nonzero; opacity: 1;"  paint-order="stroke"  transform=" translate(-110.21454421221915, -175.68825312917696)" d="M 117.4556732 149.1383667 C 125.61026000000001 148.9719543 132.0451813 155.3513641 133.5151367 156.9046021 L 133.6262054 156.9046021 C 128.9109344 147.307663 119.00891870000001 144.0069886 111.10386650000001 144.4786377 C 106.99889370000001 144.7281647 103.4486846 145.9763489 101.3960342 147.9179535 L 110.9374542 157.01548770000002 L 110.7434463 162.75700380000004 L 104.0865783 162.20224000000005 L 98.4559478 149.22149660000005 C 83.97748560000001 159.70603940000007 84.393608 181.28508000000005 92.0765533 194.29357910000004 C 87.9715728 173.82391360000005 92.2152023 165.78038020000005 92.2152023 165.78038020000005 C 90.8283691 187.52583310000006 101.4793243 206.94149780000004 101.4793243 206.94149780000004 C 103.4762802 173.65750120000004 129.1327056 162.03582760000003 129.1327056 162.03582760000003 C 126.1926193 153.0214081 117.4556732 149.1383667 117.4556732 149.1383667 z" stroke-linecap="round" />
</g>
		<g transform="matrix(1.098881111864943 0 0 1.0988811118649429 -0.00000573367367451283 -3.703217698845066)"  >
<path style="stroke: none; stroke-width: 1; stroke-dasharray: none; stroke-linecap: butt; stroke-dashoffset: 0; stroke-linejoin: miter; stroke-miterlimit: 4; fill: rgb(0,118,192); fill-rule: nonzero; opacity: 1;"  paint-order="stroke"  transform=" translate(-162.49999858226207, -126.63000869999999)" d="M 162.5 104.6486435 C 139.97782899999999 104.6486435 123.4189529 125.9781494 132.0729523 148.6113739 C 128.4392853 137.1561127 137.0099945 110.889389 162.5 110.889389 C 187.9900055 110.889389 196.5607147 137.1561126 192.9270477 148.6113739 C 201.5810394 125.9781494 185.022171 104.6486435 162.5 104.6486435 z" stroke-linecap="round" />
</g>
		<g transform="matrix(1.098881111864943 0 0 1.0988811118649429 0 -40.644122336416984)"  >
<path style="stroke: none; stroke-width: 1; stroke-dasharray: none; stroke-linecap: butt; stroke-dashoffset: 0; stroke-linejoin: miter; stroke-miterlimit: 4; fill: rgb(0,118,192); fill-rule: nonzero; opacity: 1;"  paint-order="stroke"  transform=" translate(-162.5000038, -93.01317405)" d="M 110.9652176 139.8742523 C 120.4235153 132.4130707 120.1182861 113.0806961 107.19306950000001 106.6180038 C 117.8162613 86.9803925 138.5910034 73.6668243 162.5 73.6668243 C 186.4089966 73.6668243 207.1837311 86.9803924 217.8069305 106.6180038 C 204.8817138 113.0806961 204.57647699999998 132.4130706 214.03479 139.8742523 C 206.9342041 115.8543625 234.39340209999997 102.2633285 250.92453 117.79579919999999 C 242.2984619 76.8842087 205.9910736 46.1520958 162.5 46.1520958 C 119.00892640000001 46.1520958 82.7015381 76.8842087 74.0754776 117.7958031 C 90.6065903 102.2633286 118.0657959 115.8543625 110.9652176 139.8742523 z" stroke-linecap="round" />
</g>
</g>
</g>
</svg>